<svg width="512" height="512" viewBox="0 0 512 512" fill="none" xmlns="http://www.w3.org/2000/svg">
    <style>
        @media (prefers-color-scheme: dark) {
            g {
                fill: white;
            }
        }
    </style>
    <g fill="black">
        <path
            d="M72.1265 171.442C72.1265 161.737 74.5528 152.725 79.4055 144.406C84.4315 136.087 91.1039 129.414 99.4228 124.388C107.915 119.362 117.1 116.849 126.979 116.849C136.858 116.849 145.957 119.362 154.275 124.388C162.594 129.414 169.18 136.087 174.033 144.406C178.885 152.725 181.312 161.737 181.312 171.442C181.312 181.147 178.885 190.16 174.033 198.478C169.18 206.797 162.594 213.47 154.275 218.496C145.957 223.348 136.858 225.775 126.979 225.775C117.1 225.775 107.915 223.348 99.4228 218.496C91.1039 213.47 84.4315 206.797 79.4055 198.478C74.5528 190.16 72.1265 181.147 72.1265 171.442ZM72.1265 351.078C72.1265 341.373 74.5528 332.447 79.4055 324.302C84.4315 315.983 91.1039 309.397 99.4228 304.544C107.915 299.691 117.1 297.265 126.979 297.265C136.858 297.265 145.957 299.691 154.275 304.544C162.594 309.397 169.18 315.983 174.033 324.302C178.885 332.447 181.312 341.373 181.312 351.078C181.312 360.957 178.885 370.142 174.033 378.634C169.18 386.953 162.594 393.626 154.275 398.652C145.957 403.504 136.858 405.931 126.979 405.931C117.1 405.931 107.915 403.504 99.4228 398.652C91.1039 393.626 84.4315 386.953 79.4055 378.634C74.5528 370.142 72.1265 360.957 72.1265 351.078Z" />
        <path
            d="M434.182 59.1371C417.024 59.1371 404.372 61.5634 396.227 66.4161C388.081 71.0955 384.615 79.6743 385.828 92.1527L393.887 168.842C394.407 173.522 394.667 177.854 394.667 181.841C394.667 204.718 387.561 221.962 373.35 233.574C359.312 245.012 339.208 252.724 313.038 256.711C340.248 260.697 360.612 268.236 374.13 279.328C387.821 290.419 394.667 307.49 394.667 330.541C394.667 334.873 394.407 339.553 393.887 344.579L385.828 421.269C385.655 422.308 385.568 423.782 385.568 425.688C385.568 436.433 389.641 443.885 397.787 448.045C405.932 452.204 418.064 454.284 434.182 454.284V511.476C404.546 511.476 380.542 508.877 362.171 503.677C343.974 498.478 330.542 490.073 321.877 478.461C313.211 466.849 308.879 451.424 308.879 432.187C308.879 428.721 309.225 423.175 309.918 415.549L317.717 341.199C317.891 339.639 317.977 337.386 317.977 334.44C317.977 318.322 311.652 306.884 299 300.125C286.522 293.366 269.017 289.986 246.487 289.986V223.435C268.844 223.435 286.348 220.056 299 213.296C311.652 206.537 317.977 195.099 317.977 178.981C317.977 176.035 317.891 173.782 317.717 172.222L309.918 98.3918C309.225 92.8459 308.879 86.9534 308.879 80.7142C308.879 61.4768 313.211 46.1388 321.877 34.7004C330.716 23.2619 344.234 14.943 362.431 9.74372C380.629 4.54441 404.546 1.94476 434.182 1.94476V59.1371Z" />
    </g>
</svg>